<?xml version="1.0" standalone="no"?><!DOCTYPE svg PUBLIC "-//W3C//DTD SVG 1.1//EN" "http://www.w3.org/Graphics/SVG/1.1/DTD/svg11.dtd"><svg t="1718610264882" class="icon" viewBox="0 0 1024 1024" version="1.1" xmlns="http://www.w3.org/2000/svg" p-id="4272" xmlns:xlink="http://www.w3.org/1999/xlink" width="200" height="200"><path d="M179.84 207.52m16 0l503.04 0q16 0 16 16l0 41.76q0 16-16 16l-503.04 0q-16 0-16-16l0-41.76q0-16 16-16Z" fill="#999999" p-id="4273"></path><path d="M419.68 281.28h55.36v498.24h-55.36z" fill="#999999" p-id="4274"></path><path d="M364.32 742.72m16 0l134.08 0q16 0 16 16l0 41.76q0 16-16 16l-134.08 0q-16 0-16-16l0-41.76q0-16 16-16Z" fill="#999999" p-id="4275"></path><path d="M585.76 521.28m16 0l226.4 0q16 0 16 16l0 23.36q0 16-16 16l-226.4 0q-16 0-16-16l0-23.36q0-16 16-16Z" fill="#999999" p-id="4276"></path><path d="M696.48 576.64h36.96v221.44h-36.96z" fill="#999999" p-id="4277"></path><path d="M659.68 779.52m16 0l78.72 0q16 0 16 16l0 4.96q0 16-16 16l-78.72 0q-16 0-16-16l0-4.96q0-16 16-16Z" fill="#999999" p-id="4278"></path></svg>